<svg xmlns="http://www.w3.org/2000/svg" version="1.1" viewBox="0 703 2000 589">
<path transform="translate(1537,1151)" d="m0 0h7l6 4 4 7 1 3v14l-2 9-7 14-9 10-1 2h19l2 1v6l-3 6-4 2-13 1h-17v15l2 14 3 7 3 3 3 1h10l8-4 3-3 4-17 5-10 7-9 8-7 12-5 8-1 5 3v2l14 2 2 4-6 39 1 7 7-2 8-6 2-5 2-16 5-19 4-6 3-2h12l1 4-6 30-1 7v8l4 1 5-5 8-16 8-24 2-4 2-1h12l1 1-1 12-7 35 1 6 1 1 7-1 8-7 2-3 2-20 4-16 5-7 2-1h12l1 4-5 21-1 7 12-19 8-8 9-5h11l5 5v10l-2 14v3l8 1 2-5 6-10 9-10 10-6 6-2 9-1 6 5 12 2 2 2-2 16-4 27 2 4h5l10-9 1-2 3-24 4-13 4-6 3-1h11l1 5-4 18-2 10 11-18 8-9 8-5 3-1h10l5 4 1 7-5 28-1 5v9l3 3 5-2 10-9 6-8v-11l1-11h-9l-4-2-1-9 3-5h13l2-13 6-20 9-17 7-8 10-5h7l6 4 4 6 1 3v17l-4 12-7 12-7 8 18 1 3 3-2 7-6 5-8 1h-22l1 24 3 10 5 5 2 1h10l8-4 13-13 5 1 2 1v12l-13 13-10 6-7 2h-15l-9-4-6-5-5-8-7 6-8 7-11 4h-11l-6-3-4-5-1-2v-15l4-25-5 3-8 14-6 15-4 12-3 5-2 1h-7l-5-4-1-3-5 1-8 5-3 1h-8l-6-3-5-6v-2l-4 2-5 5-4 3-4 1h-11l-6-3-6-6-3-7-1-8-5 2h-7l-8-3-5-6-1-10 1-7-2-1-5 5-6 10-8 21-3 9-4 4h-7l-4-2-3-5v-2l-5 3-7 4-6 2h-11l-6-4-3-7v-7h-2l-2 6-7 9-5 3h-9l-7-6-1-2-5 1-5 4-7 3h-9l-6-4-4-5v-2l-5 3-7 6-5 2h-11l-7-4-4-4-4 1-8 5-7 2h-15l-9-4-6-5-5-8-7 6-8 6-9 3-11 2-5 3-10 1-7-1-5-4-3-5 1-7 4-4 2-1h14l-4-10-5-8-3 1-9 14-9 10-12 7-13 4h-16l-10-3-8-6-4-1-8 6-10 4h-15l-9-4-5-4-9-14-9-17-6-8-3-2h-3l-3 16-4 20-3 6-7 6-3 1h-13l-8-3-8-6-6-8-5-12-2-11v-19l2-15 6-18 6-11 11-13 11-8 11-5 11-3 7-1h16l14 3 12 6 7 8 4 9 1 5v9l-4 13-7 9-9 8-8 4-7 1 4 4 7 6 6 10 8 14 8 5 9-1 6-4 2-2 1-15 3-10 6-10 5-5 8-5 6-2h14l6 3 6 7 2 7-1 10-4 8-7 7-13 6-9 2 4 5 5 2h9l13-5 8-6 8-9 11-21 7-14 3-3 3-1h9l4 2-3 10-2 4v6l7 11 7 10 2 6 1 8 5-3 13-13 1-5v-16l1-3h-8l-5-2-1-1v-9l3-4h13l1-10 6-21 8-16 7-9 5-4zm-1 15-4 4-6 16-5 21v3l4-1 6-7 7-14 2-8v-12zm431 0-4 4-4 10-6 24v6l4-2 5-6 6-10 3-10v-15zm-676 6-10 2-9 4-6 4-8 8-6 11-4 10-3 17v20l3 13 6 8 5 2 4-6 4-20v-7l-7-3-1-6 3-5 8-2 2-7 3-18 3-7 4-3h11l3 2v10l-4 23h7l12-5 5-4 5-7 2-6v-12l-4-8-8-6-10-2zm303 57-8 4-8 9-4 10-1 5v9l4 6 6 1 7-8 4-15 3-15v-6zm218 0-8 4-8 9-4 11-1 4v10l5 6 6-1 6-7 4-16 3-13v-7zm-420 1-5 4-4 7-1 4v8l7-1 10-7 3-6-1-7-2-2z" fill="#93675A"/>
<path transform="translate(894,1151)" d="m0 0h12l5 3 5 6 2 6v16l-3 12-5 10-11 12-10 6-10 5v25l3 10 4 5 4 2h8l10-5 2-2 1-16 4-12 7-10 8-6 8-3h15l10 5 7 9 4 12v2l12-2 3-14 5-10 3-2h12l1 1-1 10-5 25v13l4 1 8-11 8-21 5-14 4-4h11l1 1v8l-7 35v9l3 3 7-3 9-10 10-15 11-24 5-5 9-1 7 2-2 6-3 8v7l11 16 4 7 1 4v7l7-4 3-3 2-19 5-12 7-9 9-6 6-2h15l8 5 4 7 1 3v10l-4 9-4 5-9 6-8 3-9 1 3 5 6 3h9l11-4 11-7 9-9 4 1 2 4v8l-6 8-7 6-14 7-8 2h-16l-10-3-8-7-4 1-9 5-6 2-11 2-6 3-10 1-8-2-5-5-2-6 3-6 4-3h15l-9-18-4 2-7 11-11 13-10 7-9 3h-11l-7-6-2-4-1-7-2 3-5 8-5 5-3 1h-9l-8-7-3-7-1-15-10 1-4 9-6 9-8 7-9 3h-12l-8-3-7-5-1-2-4 1-11 7-7 2h-14l-9-4-8-7-6-12-2-7-1-18 1-7-14 2-20 1-2 12-6 26-4 10-4 4-7 1-6-3-2-2v-10l8-34 1-2h-11l-5-2-2-4 1-7 5-4 15-2 4-27v-10l-3-7-6-1-10 5-10 9-6 7-4-1-3-4v-7l6-9 10-10 14-7 8-2h9l8 3 6 7 3 9v23l-3 20-1 2 26-2 6-1 6-24 6-15 8-13 7-8zm4 13-6 7-6 14-6 22v4l6-2 10-8 6-10 2-7 1-16-3-4zm253 66-7 6-4 10v6l4 1 10-5 6-7v-8l-3-3zm-210 1-6 5-4 8-1 4v11l3 8 4 4 8 1 7-5 3-7-1-6-5-6-3-8v-7l-1-2z" fill="#93675A"/>
<path transform="translate(629,1141)" d="m0 0h9l6 3 5 8 1 3v18l-5 16-9 16-9 12-9 11h-2l-2 4-3 7-1 9h2l2-6 9-14 4-5 10-7 3-1h12l6 4 4 5 1 3v14l-5 10-7 7-6 3 1 5 5 4h9l8-6 2-4v-11l4-13 7-11 9-7 8-3h15l8 5 4 6 1 3v12l-4 8-6 7-12 6-8 2h-4l2 4 8 4h8l11-4 10-6 10-10 4 1 2 3v9l-4 6-9 8-14 7-8 2h-15l-10-3-8-5-1-2-4 1-10 7-6 2h-15l-10-5-6-7-3-7v-9l4-5 11-6 4-8-1-5-5-1-8 7-8 14-5 13-5 15-4 4h-8l-5-5-2-6-1-19-12 2-5 12-7 9-10 6-5 1h-12l-10-4-6-6-4 1-8 6-9 3h-12l-6-4-3-4-1-3v-14l3-18v-6l-5 3-7 12-7 19-4 11-4 4h-7l-4-2-3-5-1-4v-13l3-25-5 2-4 6-8 19-5 16-5 6h-7l-5-4-3-9v-26l3-18 4-11 4-4 2-1h11l1 1-1 11-6 21 3-3 8-15 8-9 10-6h11l4 4v14l-3 13 11-17 7-8 8-5 3-1h10l5 5v13l-5 26v10l1 1 7-1 7-6 1-14 3-12 6-10 7-7 11-5h16l8 4 7 8 4 9 1 7 11-1 2-23 5-27 5-16 7-17 7-10 7-6zm0 15-4 6-7 21-6 28v3l4-2 7-10 8-16 4-13v-13l-2-4zm71 74-6 5-4 8-1 9 4 1 10-5 6-7v-8l-3-3zm-153 1-5 4-5 10v16l4 8 5 3 7-1 5-4 3-5v-7l-6-8-2-5-1-10z" fill="#93675A"/>
<path transform="translate(150,1141)" d="m0 0h10l6 4 5 10v18l-4 14-9 17-9 12-12 14-4 6-2 12 3-3 6-11 7-9 8-7 7-3h10l5 5v12l-5 27v10l1 1h6l8-7 1-15 4-13 6-9 8-7 10-4h14l8 4 5 8 1 5v7l-4 10-8 8-10 5-8 2h-4l3 5 6 3h9l11-4 11-7 9-9 4 1 2 5v7l-7 9-11 8-12 5-5 1h-16l-10-3-9-7-4 1-8 6-9 3h-12l-6-4-3-4-1-3v-15l3-18v-5l-4 2-6 9-7 17-4 12-4 6-5 3h-9l-3-4-1-6v-21l1-26 3-24 6-25 1-6-42-2-2 13-8 46-4 27-3 22-5 5-2 1h-9l-4-2-2-3v-16l10-61 6-28 1-4-25 3-10 4-4 5-1 8 4 10-2 4-3 3-9 1-5-5-4-5v-20l8-11 10-7 11-4 14-3 22-2h36l24 2 7 1 8-11 7-5zm1 15-4 5-5 12-7 29-2 12 4-1 9-14 6-12 3-9 1-5v-14l-2-3zm67 74-5 3-6 12v8l7-1 10-7 3-5v-7l-4-3z" fill="#93675A"/>
<path transform="translate(345,1155)" d="m0 0h15l14 3 11 6 7 8 3 7v15l-3 7-6 5-7-1-5-5-1-5 1-5v-7l-4-6-7-3-6-1h-13l-10 3-6 5-3 7 1 9 3 4v2l20 10 18 8 9 5 7 6 6 12v15l-4 10-9 10-14 7-15 3h-20l-14-3-10-5-5-5-5-8-2-12 2-10 5-6 6-1 7 3 2 3v18l6 5 10 3h19l10-3 7-6 2-5-1-9-4-5-15-8-24-10-11-8-7-10-2-5-1-10 3-12 6-10 10-8 9-4z" fill="#93675A"/>
<path transform="translate(1017,704)" d="m0 0h12l6 5 1 3v98l1 2h6l2-3 1-98 3-5 4-2h7l5 5 1 2 1 101h7l2-4 1-98 4-5 2-1h12l5 3 2 5v93l-1 31-3 15-5 13-6 11-8 10-7 9-1 135-2 4-6 3h-14l-6-3-2-3-1-135-4-6-11-13-8-13-5-14-2-13v-123l2-6zm4 3-5 2-1 2-1 27v23l1 81 3 13 8 15 11 13 6 8 1 2 1 133 2 5 3 1h12l4-3 1-19v-114l3-7 10-11 8-13 5-12 3-12 1-9v-121l-3-3h-10l-3 5-1 97-3 5-6 2-7-3-2-4-1-98-3-4-6 1-1 2-1 98-4 6-3 2-9-1-2-4-1-7v-91l-2-5-4-2z" fill="#93675A"/>
<path transform="translate(1e3 703)" d="m0 0 4 2v47l-6 2-23 3-21 7-15 8-14 11-11 11-9 12-8 14-6 14-4 18-1 12v15l2 14 5 17 5 12 7 12 8 10 2 4 3 1 5 5 10 9 15 9 19 8 18 4 18 2 1 1v48l-1 1h-10l-19-2-25-6-15-6-16-8-14-9-14-11-13-13-11-14-9-14-9-17-7-19-4-16-2-14v-34l3-19 6-21 9-20 8-13 10-14 14-15 7-7 18-13 15-9 15-7 18-6 20-4zm-10 5-27 4-20 6-16 7-16 10-11 8-12 11-9 9-11 14-8 13-8 15-6 16-5 20-2 16v27l4 24 8 24 8 16 8 13 10 13 13 14 11 9 11 8 11 7 22 10 20 6 27 4h7l1-1v-39l-2-2-21-3-15-4-16-7-12-7-9-7-10-9-8-9-10-15-8-17-6-21-2-17 1-20 4-18 6-16 7-13 8-11 9-10 12-11 14-9 17-8 12-4 18-3 9-1 1-1 1-10v-26l-1-5z" fill="#93675A"/>
<path transform="translate(1151,704)" d="m0 0h7l5 4 1 3v318l-3 5-7 2h-16l-7-3-2-4v-15l3-50 1-24-17-1-6-2-3-9-2-22-1-23v-51l3-29 3-20 7-25 9-21 10-17 7-9 5-5zm2 4-4 2-10 13-12 22-6 15-7 26-4 27-2 21v36l2 42 2 20 3 2 17 2 4 2 1 2v15l-3 57v17l5 3h17l3-3 1-8v-304l-1-7-2-2z" fill="#93675A"/>
<path transform="translate(995,766)" d="m0 0h7l2 1v205l-1 1h-14l-16-3-16-6-11-6-12-9-5-4-7-8-9-12-8-16-5-14-3-16v-18l3-17 6-16 6-12 10-13 11-12 16-11 19-9 18-4zm1 4-19 3-16 5-16 9-13 11-9 10-9 14-6 12-5 17-1 7v24l4 18 7 16 8 13 11 12 9 8 14 9 16 7 18 4h10l1-3v-194l-1-2z" fill="#93675A"/>
</svg>